<svg width="92" height="28" viewBox="0 0 92 28" fill="none" xmlns="http://www.w3.org/2000/svg">
<g clip-path="url(#clip0_206_961)">
<mask id="mask0_206_961" style="mask-type:luminance" maskUnits="userSpaceOnUse" x="0" y="-1" width="92" height="29">
<path d="M92 -0.000152588H0V27.0364H92V-0.000152588Z" fill="white"/>
</mask>
<g mask="url(#mask0_206_961)">
<path d="M5.62264 0.653938H12L10.5283 7.54791L10.1509 6.35397C10.5547 5.19856 11.1623 4.151 11.9811 3.21512C12.8 2.27922 13.7736 1.53205 14.9057 0.981307C16.0377 0.430558 17.283 0.153259 18.6415 0.153259C20.2 0.153259 21.5736 0.507585 22.7547 1.21239C23.9358 1.91719 24.8491 2.9147 25.4906 4.19722C26.1321 5.47972 26.4529 6.98177 26.4529 8.70332C26.4529 10.8331 26.0453 12.7742 25.2264 14.5189C24.4075 16.2636 23.2528 17.6385 21.7547 18.6399C20.2566 19.6412 18.517 20.1419 16.5283 20.1419C15.1207 20.1419 13.8604 19.8646 12.7547 19.3139C11.6491 18.7631 10.766 18.0044 10.1132 17.0416C9.46039 16.0787 9.06791 15.0196 8.9434 13.8642L9.66037 12.5932L6.56604 27.0358H0L5.62264 0.653938ZM17.2075 15.1351C18.1132 14.4688 18.8113 13.583 19.3019 12.4777C19.7925 11.3723 20.0377 10.1938 20.0377 8.93442C20.0377 7.98311 19.8679 7.15121 19.5283 6.431C19.1887 5.71081 18.6981 5.1485 18.0566 4.7364C17.4151 4.3243 16.6415 4.12017 15.7358 4.12017C14.5547 4.12017 13.5208 4.45911 12.6415 5.1408C11.7623 5.82249 11.0943 6.71988 10.6415 7.83676C10.1887 8.95365 9.96226 10.1668 9.96226 11.4763C9.96226 12.4276 10.1245 13.2556 10.4528 13.9605C10.7811 14.6653 11.2528 15.2045 11.8679 15.578C12.483 15.9516 13.234 16.1365 14.1132 16.1365C15.2717 16.1365 16.3019 15.8014 17.2075 15.1351Z" fill="#004F30"/>
<path d="M33.5851 18.7561C31.9512 17.9088 30.7247 16.7341 29.9059 15.2321C29.0868 13.73 28.6794 12.0046 28.6794 10.0519C28.6794 8.09929 29.1436 6.36234 30.0757 4.83333C31.0078 3.30818 32.2908 2.11811 33.9247 1.2708C35.5586 0.423498 37.4228 -0.000152588 39.5096 -0.000152588C41.7473 -0.000152588 43.6604 0.462012 45.2454 1.38634C46.8302 2.31068 48.0265 3.58933 48.8303 5.21846C49.6341 6.8476 50.0378 8.71552 50.0378 10.8222V11.2844H31.8492L34.8302 8.89653V10.3986C34.8302 11.4269 35.0113 12.332 35.3775 13.1138C35.7434 13.8995 36.302 14.5195 37.0566 14.9817C37.8113 15.4439 38.7434 15.675 39.8492 15.675C41.0568 15.675 42.0869 15.3938 42.9436 14.8277C43.8 14.2615 44.4416 13.4296 44.868 12.3243L50 14.4425C49.0679 16.1641 47.7549 17.5236 46.0566 18.525C44.3585 19.5264 42.2 20.027 39.5851 20.027C37.2191 20.027 35.219 19.6034 33.5851 18.7561ZM43.151 5.58434C42.7851 5.01819 42.2907 4.59453 41.6606 4.31341C41.0303 4.03225 40.2906 3.88974 39.4342 3.88974C38.6304 3.88974 37.9133 4.03609 37.2832 4.33264C36.6529 4.62919 36.1398 5.05672 35.736 5.62286C35.3323 6.18901 35.0681 6.86686 34.9435 7.66409H46.6793L43.8115 8.2418L43.7737 7.66409C43.7245 6.84376 43.5171 6.15051 43.151 5.58434Z" fill="#004F30"/>
<path d="M54.4152 18.5635C53.1057 17.5121 52.453 16.0601 52.453 14.2115C52.453 11.8736 53.3585 10.1482 55.1699 9.03134C56.9812 7.91442 59.4831 7.35598 62.6795 7.35598C63.7359 7.35598 64.668 7.433 65.4718 7.58707L65.8493 7.62557V7.00937C65.8493 5.88092 65.5738 5.01436 65.0189 4.40969C64.4643 3.80502 63.4983 3.50461 62.1133 3.50461C61.3852 3.50461 60.7548 3.63169 60.2265 3.88974C59.6981 4.14777 59.2757 4.51751 58.9624 5.00663C58.6491 5.49578 58.4793 6.07349 58.453 6.73978L52.6793 5.81543C52.8302 4.583 53.3396 3.53157 54.2076 2.6573C55.0755 1.78304 56.1964 1.12445 57.5661 0.67384C58.9359 0.223228 60.4531 -0.000152588 62.1133 -0.000152588C65.2342 -0.000152588 67.6417 0.700799 69.3397 2.09885C71.0378 3.49691 71.8868 5.50732 71.8868 8.12625V13.7108C71.8868 14.431 72.0303 14.9509 72.3208 15.2706C72.6115 15.5902 73.0302 15.752 73.5851 15.752C74.0115 15.752 74.3774 15.7019 74.6794 15.5979V19.2182L74.4907 19.3338C74.0378 19.5148 73.5662 19.6534 73.0757 19.7574C72.585 19.8614 72.0493 19.9115 71.4718 19.9115C69.6115 19.9115 68.3096 19.4416 67.5662 18.5057C66.8229 17.5698 66.453 16.3297 66.453 14.7892V13.2871L66.9435 13.4412C66.8681 14.7006 66.5019 15.8367 65.8493 16.8496C65.1963 17.8626 64.321 18.6675 63.2265 19.2568C62.1322 19.846 60.917 20.1426 59.5851 20.1426C57.4455 20.1426 55.7248 19.6149 54.4152 18.5635ZM64.6417 15.0202C65.4455 14.1229 65.8493 12.902 65.8493 11.3614V9.12762L67.9624 11.1689C66.4039 10.7837 64.9434 10.5911 63.585 10.5911C62.0491 10.5911 60.8113 10.8492 59.8679 11.3614C58.9245 11.8736 58.453 12.6709 58.453 13.7493C58.453 14.5465 58.7172 15.182 59.2455 15.6557C59.7738 16.1294 60.5172 16.3682 61.4719 16.3682C62.7812 16.3682 63.8379 15.9176 64.6417 15.0202Z" fill="#004F30"/>
<path d="M76.8677 0.65397H83.283V6.81618C83.8377 4.63244 84.7811 2.9571 86.1132 1.79013C87.4451 0.623161 89.0677 0.0377502 90.9811 0.0377502C91.434 0.0377502 91.7736 0.0493044 91.9999 0.076264V6.39251C91.4453 6.31549 90.8678 6.27699 90.264 6.27699C88.879 6.27699 87.6717 6.48496 86.6413 6.8932C85.6112 7.3053 84.8037 7.96005 84.2264 8.85741C83.6489 9.75479 83.3585 10.9256 83.3585 12.3622V19.5257H76.8677V0.65397Z" fill="#004F30"/>
</g>
</g>
<defs>
<clipPath id="clip0_206_961">
<rect width="92" height="27.0959" fill="white"/>
</clipPath>
</defs>
</svg>
