<svg width="120" height="43" viewBox="0 0 120 43" fill="none" xmlns="http://www.w3.org/2000/svg">
<path d="M118.552 25.9772C119.396 26.2426 119.865 27.1421 119.6 27.9864L115.275 41.7448C115.009 42.589 114.11 43.0583 113.266 42.7929C112.421 42.5275 111.952 41.6279 112.217 40.7836L116.062 28.554L103.832 24.7094C102.988 24.444 102.519 23.5445 102.784 22.7002C103.05 21.8559 103.949 21.3866 104.794 21.652L118.552 25.9772ZM45.3958 31.8123L44.8397 33.3152L45.3958 31.8123ZM6.23584 5.95596L7.27641 4.73731L6.23584 5.95596ZM1.34566 3.18822C0.770953 2.51521 0.85065 1.50372 1.52367 0.929007C2.1967 0.354294 3.20818 0.433991 3.78289 1.10701L1.34566 3.18822ZM118.812 28.9266C97.0977 40.2541 65.8489 41.089 44.8397 33.3152L45.9519 30.3095C66.1724 37.7915 96.4737 36.9648 117.33 26.0851L118.812 28.9266ZM44.8397 33.3152C29.7225 27.7215 16.8581 17.1332 5.19527 7.1746L7.27641 4.73731C18.9748 14.7263 31.4405 24.9399 45.9519 30.3095L44.8397 33.3152ZM5.19527 7.1746C3.70688 5.9037 2.51888 4.56213 1.34566 3.18822L3.78289 1.10701C4.93907 2.46097 5.99113 3.63984 7.27641 4.73731L5.19527 7.1746Z" fill="#004F30"/>
</svg>
